<svg xmlns="http://www.w3.org/2000/svg" width="10.456" height="14.672" viewBox="0 0 10.456 14.672">
    <g id="Group_38061" data-name="Group 38061" transform="translate(-429 -223.355)">
        <path id="Vector"
            d="M10.214,4.334l-2.4-2.4L6.353.465a1.591,1.591,0,0,0-2.248,0L.236,4.334A.806.806,0,0,0,.8,5.708H9.647A.8.8,0,0,0,10.214,4.334Z"
            transform="translate(429 223.355)" fill="#017efa" />
        <path id="Vector-2" data-name="Vector"
            d="M9.648,0H.806A.8.8,0,0,0,.238,1.374L4.107,5.243a1.591,1.591,0,0,0,2.248,0L7.826,3.772l2.4-2.4A.808.808,0,0,0,9.648,0Z"
            transform="translate(429 232.319)" fill="#d0d1d4" />
    </g>
</svg>
  