<svg xmlns="http://www.w3.org/2000/svg" width="110" height="150" viewBox="0 0 110 150">
    <g id="Group_38414" data-name="Group 38414" transform="translate(-781 -220)">
        <rect id="emily-sea-coiWR0gT8Cw-unsplash" width="110" height="150" rx="15"
            transform="translate(781 220)" fill="#b1eaff" />
        <g id="Group_36597" data-name="Group 36597" transform="translate(753 -169)">
            <text id="My_House" data-name="My
  House" transform="translate(48 498)" font-size="15"
                font-family="OpenSans-Semibold, Open Sans" font-weight="600">
                <tspan x="0" y="0">My</tspan>
                <tspan x="0" y="20">House</tspan>
            </text>
        </g>
        <g id="house-2-svgrepo-com" transform="translate(800 254.89)">
            <path id="Path_27606" data-name="Path 27606" d="M2,22H39.87"
                transform="translate(0 17.676)" fill="none" stroke="#000" stroke-linecap="round"
                stroke-linejoin="round" stroke-miterlimit="10" stroke-width="2.8" />
            <path id="Path_27607" data-name="Path 27607"
                d="M2.95,39.676l.094-22.952a3.861,3.861,0,0,1,1.451-3l13.194-10.4a3.754,3.754,0,0,1,4.637,0L35.52,13.71a3.813,3.813,0,0,1,1.451,3.014V39.676"
                transform="translate(0.925 0)" fill="none" stroke="#000" stroke-linejoin="round"
                stroke-miterlimit="10" stroke-width="2.8" />
            <path id="Path_27608" data-name="Path 27608"
                d="M22.413,11H9.72A2.844,2.844,0,0,0,7,13.96V32.71H25.133V13.96A2.844,2.844,0,0,0,22.413,11Z"
                transform="translate(4.868 6.966)" fill="none" stroke="#000" stroke-linecap="round"
                stroke-linejoin="round" stroke-miterlimit="10" stroke-width="2.8" />
            <path id="Path_27609" data-name="Path 27609" d="M10,16.25v2.96"
                transform="translate(7.148 12.381)" fill="none" stroke="#000" stroke-linecap="round"
                stroke-linejoin="round" stroke-miterlimit="10" stroke-width="2.8" />
            <path id="Path_27610" data-name="Path 27610" d="M10.5,7.5h5.921"
                transform="translate(7.474 4.512)" fill="none" stroke="#000" stroke-linecap="round"
                stroke-linejoin="round" stroke-miterlimit="10" stroke-width="2.8" />
        </g>
    </g>
    <g id="Group_38445" data-name="Group 38445" transform="translate(-23 -310)">
        <circle id="Ellipse_34" data-name="Ellipse 34" cx="10" cy="10" r="10"
            transform="translate(101 319)" fill="#3acc6c" />
        <g id="Group_63" data-name="Group 63" transform="translate(106 326)">
            <g id="Group_2658" data-name="Group 2658">
                <line id="Line_32" data-name="Line 32" x2="3.341" y2="3.341"
                    transform="translate(0 3.341)" fill="none" stroke="#fff" stroke-linecap="round"
                    stroke-width="1.5" />
                <line id="Line_33" data-name="Line 33" y1="6.682" x2="5.847"
                    transform="translate(3.341)" fill="none" stroke="#fff" stroke-linecap="round"
                    stroke-width="1.5" />
            </g>
        </g>
    </g>
</svg>
  