<svg xmlns="http://www.w3.org/2000/svg" xmlns:xlink="http://www.w3.org/1999/xlink" width="110"
    height="150" viewBox="0 0 110 150">
    <defs>
        <linearGradient id="linear-gradient" x1="0.5" x2="0.5" y2="1"
            gradientUnits="objectBoundingBox">
            <stop offset="0" stop-color="#e6feeb" />
            <stop offset="1" stop-color="#f1fff4" />
        </linearGradient>
    </defs>
    <g id="Group_38410" data-name="Group 38410" transform="translate(-903 -393)">
        <rect id="emily-sea-coiWR0gT8Cw-unsplash" width="110" height="150" rx="15"
            transform="translate(903 393)" fill="url(#linear-gradient)" />
        <g id="Group_36601" data-name="Group 36601" transform="translate(874 4)">
            <text id="Other" transform="translate(69 498)" font-size="15"
                font-family="OpenSans-Semibold, Open Sans" font-weight="600">
                <tspan x="-21.167" y="0">Other</tspan>
            </text>
        </g>
        <path id="building-03-svgrepo-com"
            d="M12.52,10.651h5.26M12.52,18.3h5.26m-5.26,7.651h5.26m6.694-15.3h5.26M24.474,18.3h5.26m-5.26,7.651h5.26m6.694,11.476V9.121c0-2.142,0-3.214-.417-4.032a3.825,3.825,0,0,0-1.672-1.672C33.521,3,32.45,3,30.307,3H11.946C9.8,3,8.732,3,7.914,3.417A3.825,3.825,0,0,0,6.242,5.089c-.417.818-.417,1.889-.417,4.032V37.428m34.428,0H2"
            transform="translate(921.247 428.879)" fill="none" stroke="#000" stroke-linecap="round"
            stroke-linejoin="round" stroke-width="3" />
    </g>
    <g id="Group_38448" data-name="Group 38448" transform="translate(-20 -310)">
        <circle id="Ellipse_34" data-name="Ellipse 34" cx="10" cy="10" r="10"
            transform="translate(101 319)" fill="#3acc6c" />
        <g id="Group_63" data-name="Group 63" transform="translate(106 326)">
            <g id="Group_2658" data-name="Group 2658">
                <line id="Line_32" data-name="Line 32" x2="3.341" y2="3.341"
                    transform="translate(0 3.341)" fill="none" stroke="#fff" stroke-linecap="round"
                    stroke-width="1.5" />
                <line id="Line_33" data-name="Line 33" y1="6.682" x2="5.847"
                    transform="translate(3.341)" fill="none" stroke="#fff" stroke-linecap="round"
                    stroke-width="1.5" />
            </g>
        </g>
    </g>
</svg>
  